<svg width="466" height="263" xmlns="http://www.w3.org/2000/svg" xmlns:xlink="http://www.w3.org/1999/xlink" xml:space="preserve" overflow="hidden"><defs><clipPath id="clip0"><rect x="229" y="247" width="466" height="263"/></clipPath></defs><g clip-path="url(#clip0)" transform="translate(-229 -247)"><path d="M0 0 466 0 466 262.125 0 262.125Z" fill="#FFFFFF" transform="matrix(1 0 0 1.00334 229 247)"/><path d="M245.742 219.827 273.069 199.009 410.313 198.414 437.239 219.827 409.49 240.645 272.667 240.645 245.742 219.827Z" fill="#002060" fill-rule="evenodd" transform="matrix(1 0 0 1.00334 229 247)"/><path d="M240.281 216.915 267.66 196.097 405.165 195.502 432.142 216.915 404.342 237.733 267.257 237.733 240.281 216.915Z" fill="#0070C0" fill-rule="evenodd" transform="matrix(1 0 0 1.00334 229 247)"/><text fill="#FFFFFF" font-family="Arial,Arial_MSFontService,sans-serif" font-weight="700" font-size="48" transform="matrix(0.364062 0 0 0.365278 525.303 470)">D</text><text fill="#FFFFFF" font-family="Arial,Arial_MSFontService,sans-serif" font-weight="700" font-size="48" transform="matrix(0.364062 0 0 0.365278 538.045 470)">.</text><text fill="#FFFFFF" font-family="Microsoft JhengHei,Microsoft JhengHei_MSFontService,sans-serif" font-weight="700" font-size="48" transform="matrix(0.364062 0 0 0.365278 547.45 470)">藏狐</text><path d="M41.5031 219.827 68.8297 199.009 206.075 198.414 233 219.827 205.252 240.645 68.4277 240.645 41.5031 219.827Z" fill="#002060" fill-rule="evenodd" transform="matrix(1 0 0 1.00334 229 247)"/><path d="M36.0422 216.915 63.3687 196.097 200.614 195.502 227.539 216.915 199.791 237.733 62.9668 237.733 36.0422 216.915Z" fill="#0070C0" fill-rule="evenodd" transform="matrix(1 0 0 1.00334 229 247)"/><text fill="#FFFFFF" font-family="Arial,Arial_MSFontService,sans-serif" font-weight="700" font-size="48" transform="matrix(0.364062 0 0 0.365278 320.886 470)">C</text><text fill="#FFFFFF" font-family="Arial,Arial_MSFontService,sans-serif" font-weight="700" font-size="48" transform="matrix(0.364062 0 0 0.365278 333.628 470)">.</text><text fill="#FFFFFF" font-family="Microsoft JhengHei,Microsoft JhengHei_MSFontService,sans-serif" font-weight="700" font-size="48" transform="matrix(0.364062 0 0 0.365278 342.002 470)">大象</text><path d="M245.742 168.859 273.069 148.041 410.313 147.445 437.239 168.859 409.49 189.677 272.667 189.677 245.742 168.859Z" fill="#002060" fill-rule="evenodd" transform="matrix(1 0 0 1.00334 229 247)"/><path d="M240.281 165.582 267.66 144.764 405.165 144.169 432.142 165.582 404.342 186.4 267.257 186.4 240.281 165.582Z" fill="#0070C0" fill-rule="evenodd" transform="matrix(1 0 0 1.00334 229 247)"/><text fill="#FFFFFF" font-family="Arial,Arial_MSFontService,sans-serif" font-weight="700" font-size="48" transform="matrix(0.364062 0 0 0.365278 525.303 419)">B</text><text fill="#FFFFFF" font-family="Arial,Arial_MSFontService,sans-serif" font-weight="700" font-size="48" transform="matrix(0.364062 0 0 0.365278 538.045 419)">.</text><text fill="#FFFFFF" font-family="Microsoft JhengHei,Microsoft JhengHei_MSFontService,sans-serif" font-weight="700" font-size="48" transform="matrix(0.364062 0 0 0.365278 546.843 419)">長頸鹿</text><path d="M41.5031 168.859 68.8297 148.041 206.075 147.445 233 168.859 205.252 189.677 68.4277 189.677 41.5031 168.859Z" fill="#002060" fill-rule="evenodd" transform="matrix(1 0 0 1.00334 229 247)"/><path d="M36.0422 165.582 63.3687 144.764 200.614 144.169 227.539 165.582 199.791 186.4 62.9668 186.4 36.0422 165.582Z" fill="#0070C0" fill-rule="evenodd" transform="matrix(1 0 0 1.00334 229 247)"/><text fill="#FFFFFF" font-family="Arial,Arial_MSFontService,sans-serif" font-weight="700" font-size="48" transform="matrix(0.364062 0 0 0.365278 320.886 419)">A</text><text fill="#FFFFFF" font-family="Arial,Arial_MSFontService,sans-serif" font-weight="700" font-size="48" transform="matrix(0.364062 0 0 0.365278 332.9 419)">.</text><text fill="#FFFFFF" font-family="Microsoft JhengHei,Microsoft JhengHei_MSFontService,sans-serif" font-weight="700" font-size="48" transform="matrix(0.364062 0 0 0.365278 341.759 419)">哈士奇</text><text font-family="Arial,Arial_MSFontService,sans-serif" font-weight="700" font-size="53" transform="matrix(0.364062 0 0 0.365278 290.203 302)">Q</text><text font-family="Microsoft JhengHei,Microsoft JhengHei_MSFontService,sans-serif" font-weight="700" font-size="53" transform="matrix(0.364062 0 0 0.365278 305.13 302)">：</text><text font-family="Microsoft JhengHei,Microsoft JhengHei_MSFontService,sans-serif" font-weight="700" font-size="53" transform="matrix(0.364062 0 0 0.365278 290.203 326)">請問下列哪一個選項</text><text font-family="Microsoft JhengHei,Microsoft JhengHei_MSFontService,sans-serif" font-weight="700" font-size="53" transform="matrix(0.364062 0 0 0.365278 463.861 326)">，</text><text font-family="Microsoft JhengHei,Microsoft JhengHei_MSFontService,sans-serif" font-weight="700" font-size="53" transform="matrix(0.364062 0 0 0.365278 290.203 349)">在臺灣可以合法當成寵物</text><text font-family="Microsoft JhengHei,Microsoft JhengHei_MSFontService,sans-serif" font-weight="700" font-size="53" transform="matrix(0.364062 0 0 0.365278 502.452 349)">？</text><path d="M47.9343 117.592C43.7458 117.592 40.3501 114.197 40.3501 110.008L40.3498 79.6685C40.3498 75.48 36.9542 72.0844 32.7656 72.0844 36.9542 72.0844 40.3498 68.6888 40.3498 64.5002L40.3498 34.1607C40.3498 29.9721 43.7454 26.5766 47.9339 26.5766M418.064 26.5766C422.254 26.5766 425.651 29.9721 425.651 34.1607L425.651 64.5002C425.651 68.6888 429.044 72.0844 433.234 72.0844 429.044 72.0844 425.651 75.48 425.651 79.6685L425.651 110.008C425.651 114.197 422.254 117.592 418.068 117.592" stroke="#4472C4" stroke-width="2.9125" stroke-miterlimit="8" fill="none" fill-rule="evenodd" transform="matrix(1 0 0 1.00334 229 247)"/></g></svg>