<svg xmlns="http://www.w3.org/2000/svg" viewBox="0 0 281.95 62.07"><path d="M40.3,52.63,51.1,25.2H59v.21c-2.45,0-3.45,1.51-3.45,5.33V55.66c0,3.81,1,5.32,3.45,5.32v.22H47.72V61c2.45,0,3.38-1.51,3.38-5.32V27.57l-10.36,26,4.39,9.79c2.95,6.55,4.68,8.86,7.34,9.58a6.41,6.41,0,0,0,2,.28,10.7,10.7,0,0,0,2.88-.43v.36a10.21,10.21,0,0,1-4.68,1c-6.34,0-9.36-4.32-11.95-9.86L23.31,26.85V55.66c0,3.81,1,5.32,3.46,5.32v.22H19.13V61c2.45,0,3.39-1.51,3.39-5.32V25.2l-2.23-4.47C18,16.2,16.11,15,11.07,15v-.36c7.56,0,12.82,3,15.62,9Z" transform="translate(-11.07 -12.09)"/><path d="M62.55,61c2.45,0,3.38-1.51,3.38-5.32V30.74c0-3.82-.93-5.33-3.38-5.33V25.2H86l3.82,10.51h-.58c-2.81-7.2-5.69-9.79-10.87-9.79H70.33V42.84h5c3.81,0,5.32-1.37,5.32-4.9h.58V48.45h-.58c0-3.52-1.51-4.89-5.32-4.89h-5V60.48h9.28c4.83,0,8.36-3.6,11.45-11.45h.58L87.25,61.2H62.55Z" transform="translate(-11.07 -12.09)"/><path d="M92.72,61c2.44,0,3.38-1.51,3.38-5.32V30.74c0-3.82-.94-5.33-3.38-5.33V25.2h23.47L120,35.71h-.58c-2.81-7.2-5.69-9.79-10.87-9.79h-8.07V42.84h5c3.82,0,5.33-1.37,5.33-4.9h.58V48.45h-.58c0-3.52-1.51-4.89-5.33-4.89h-5V60.48h9.29c4.83,0,8.35-3.6,11.45-11.45h.58l-4.4,12.17H92.72Z" transform="translate(-11.07 -12.09)"/><path d="M133.18,61c2.45,0,3.39-1.51,3.39-5.32V25.92H132c-5.4,0-7.78,2.52-9.08,9.79h-.57l2-10.51H153.2l1.94,10.51h-.57c-1.44-7.35-3.68-9.79-9-9.79H141V55.66c0,3.81.93,5.32,3.38,5.32v.22H133.18Z" transform="translate(-11.07 -12.09)"/><path d="M179.48,41.76v1.8H160.32v-1.8Z" transform="translate(-11.07 -12.09)"/><path d="M174.51,25a15.09,15.09,0,0,0,2.88.29,14.38,14.38,0,0,0,5.76-1.3,62,62,0,0,0,8.71-4.53c6-3.53,12.53-7.35,20.74-7.35,6.48,0,13,2.38,15.19,9.43h-.36C224.84,17.06,219.8,15,214.69,15c-4.68,0-9.44,1.73-18.08,6.56l-2.88,1.58V55.66c0,2.3,0,5.32,3.39,5.32v.22H186V61c3.39,0,3.39-3,3.39-5.32V25.2a21,21,0,0,1-7.2,1.22,28.67,28.67,0,0,1-7.63-1.08Z" transform="translate(-11.07 -12.09)"/><path d="M201.44,61.2V61c2.44,0,3.45-1.51,3.45-5.32V30.74c0-3.82-1-5.33-3.45-5.33V25.2h12.81c7.06,0,11.24,3.6,11.24,9.57a9.33,9.33,0,0,1-7.42,9.51,5.11,5.11,0,0,1,2.38,1.08c5,4.39,1,15.62,10.29,15.62H232v.22h-1.88c-6.4,0-8.71-1.15-9.79-5l-1.87-7.92c-.58-2.59-1.87-3.6-4.61-3.6h-4.54V55.66c0,3.81,1,5.32,3.46,5.32v.22ZM209.28,26V44h4.54c5.11,0,7.71-4,7.71-9.22,0-5.54-2.89-8.78-7.71-8.78Z" transform="translate(-11.07 -12.09)"/><path d="M248.16,24.48A18.72,18.72,0,1,1,229.44,43.2,18.69,18.69,0,0,1,248.16,24.48Zm14.26,21c0-9.07-6-20.3-15.48-20.3-7.63,0-13,7.12-13,15.77,0,9.07,6,20.23,15.48,20.23C257,61.2,262.42,54.07,262.42,45.5Z" transform="translate(-11.07 -12.09)"/><path d="M268.32,61c2.45,0,3.39-1.51,3.39-5.32V30.74c0-3.82-.94-5.33-3.39-5.33V25.2h11.16v.21c-2.44,0-3.38,1.51-3.38,5.33V60.48h6.48c4.82,0,6.84-2,9.86-9.79H293L289.28,61.2h-21Z" transform="translate(-11.07 -12.09)"/></svg>